<svg width="120" height="120" viewBox="0 0 120 120" fill="none" xmlns="http://www.w3.org/2000/svg">
    <path
        d="M116.4 87.2C93.9004 87.1 19.5004 87.1 4.00036 87.2C-0.899641 87.2 -0.799641 64.7 4.00036 63.9C19.6004 61.4 64.3004 63.9 64.3004 63.9C64.3004 63.9 80.4004 80.2 85.1004 80.2C89.9004 80.2 101.2 63.9 101.2 63.9C101.2 63.9 114 61.6 116.4 63.9C120.3 67.9 121.2 87.3 116.4 87.2Z"
        fill="#707070" />
    <path
        d="M110.9 108.8C91.7998 111.3 27.2998 110.7 7.89975 108.8C3.59975 108.4 6.39975 95.2 6.39975 95.2H114.5C114.4 95.2 116.3 108.1 110.9 108.8Z"
        fill="#707070" />
    <path
        d="M58.1004 9.90001C30.6004 6.20001 7.90039 29.1 7.90039 51.3L110.5 52.3C110.6 30.2 85.4004 13.6 58.1004 9.90001Z"
        fill="#707070" />
</svg>